<?xml version="1.0" standalone="no"?>
<!DOCTYPE svg PUBLIC "-//W3C//DTD SVG 20010904//EN"
 "http://www.w3.org/TR/2001/REC-SVG-20010904/DTD/svg10.dtd">
<svg version="1.0" xmlns="http://www.w3.org/2000/svg"
 width="343.000000pt" height="147.000000pt" viewBox="0 0 343.000000 147.000000"
 preserveAspectRatio="xMidYMid meet">

<g transform="translate(0.000000,147.000000) scale(0.100000,-0.100000)"
fill="#000000" stroke="none">
<path d="M0 735 l0 -735 1715 0 1715 0 0 735 0 735 -1715 0 -1715 0 0 -735z
m775 447 c161 -76 254 -246 226 -415 -30 -180 -153 -307 -329 -338 l-62 -11 0
-99 0 -99 -200 0 -201 0 3 353 3 352 27 57 c29 63 101 146 155 179 109 67 260
76 378 21z m413 -444 l-3 -203 -37 -3 -38 -3 0 205 0 206 40 0 40 0 -2 -202z
m129 191 c50 -19 73 -48 73 -94 0 -57 -28 -91 -92 -110 -61 -18 -98 -19 -49
-1 46 17 61 41 61 102 0 68 -7 83 -44 100 l-31 13 27 1 c15 0 39 -5 55 -11z
m1853 -69 l0 -50 40 0 c22 0 40 -4 40 -10 0 -5 -18 -10 -40 -10 l-40 0 0 -105
c0 -96 2 -105 21 -115 11 -7 33 -9 47 -6 l27 6 -24 -20 c-31 -27 -94 -27 -121
0 -18 18 -20 33 -20 130 0 103 -1 110 -20 110 -11 0 -20 5 -20 10 0 6 9 10 20
10 16 0 20 7 20 38 0 32 4 40 28 49 42 17 42 16 42 -37z m-1551 -64 c13 -14
16 -39 16 -139 l0 -122 -32 -3 -31 -3 -4 120 c-2 80 -7 124 -16 133 -7 7 -31
13 -54 13 l-40 0 28 12 c37 17 111 10 133 -11z m143 8 c-39 -27 -25 -55 47
-94 46 -25 67 -43 74 -63 12 -38 -8 -84 -44 -102 -42 -22 -51 -18 -24 10 14
13 25 28 25 34 0 16 -30 41 -68 57 -51 21 -82 53 -82 84 0 31 25 68 54 80 34
14 42 11 18 -6z m106 2 c2 -3 2 -11 0 -18 -2 -11 -11 -8 -38 10 l-35 25 34 -7
c19 -3 36 -8 39 -10z m135 4 c-44 -18 -22 -77 35 -95 82 -25 110 -110 51 -159
-17 -14 -38 -26 -47 -26 -13 0 -11 4 6 16 16 11 22 24 20 42 -2 21 -15 34 -62
58 -66 36 -76 47 -76 91 0 23 8 38 31 57 17 14 38 26 47 25 12 0 11 -3 -5 -9z
m87 2 c8 -4 16 -15 16 -24 2 -16 -2 -15 -30 4 -17 12 -33 23 -35 25 -8 6 34 2
49 -5z m150 -126 l0 -134 28 -10 27 -10 -27 -1 c-27 -1 -28 -3 -28 -56 l0 -55
-35 0 -35 0 0 194 c0 210 -2 201 53 205 15 1 17 -12 17 -133z m169 119 c35
-18 56 -66 55 -125 -1 -79 -45 -134 -117 -146 -32 -5 -32 -5 -8 9 37 22 50 56
51 128 0 52 -4 72 -21 93 -22 28 -56 34 -90 16 -32 -18 -21 -1 14 20 38 24 77
25 116 5z m202 -13 c-57 -56 -48 -226 13 -253 17 -8 15 -8 -9 -4 -63 12 -115
76 -115 140 0 45 32 97 76 122 53 31 68 29 35 -5z m127 1 c43 -27 64 -73 59
-131 -4 -56 -27 -91 -79 -118 -31 -16 -62 -19 -35 -3 28 16 47 71 47 134 0 62
-19 117 -47 134 -16 10 -15 11 7 5 14 -3 35 -13 48 -21z m182 -118 l0 -145
-35 0 -35 0 0 139 c0 149 -1 146 53 150 15 1 17 -12 17 -144z m110 115 c0 -27
-3 -30 -33 -30 -18 0 -38 -5 -45 -12 -9 -9 -12 -8 -12 5 0 24 45 67 70 67 16
0 20 -6 20 -30z m-1555 -45 c0 -25 -40 -33 -49 -10 -9 24 2 37 27 33 14 -2 22
-10 22 -23z m35 -78 c-13 -7 -29 -25 -34 -40 -14 -39 3 -62 43 -62 l32 0 -21
-17 c-28 -23 -78 -23 -102 -1 -19 17 -24 68 -9 91 8 14 75 41 101 41 8 1 4 -5
-10 -12z m239 -135 c-23 -9 -59 9 -59 28 0 20 1 20 35 -2 19 -13 30 -25 24
-26z m239 0 c-21 -9 -58 9 -58 28 0 18 1 18 34 -3 18 -12 29 -24 24 -25z"/>
<path d="M547 1010 c-46 -14 -93 -56 -116 -103 -19 -40 -21 -60 -21 -265 l0
-222 100 0 100 0 0 99 0 98 38 7 c85 13 162 105 162 192 0 50 -40 133 -77 160
-55 41 -123 53 -186 34z"/>
</g>
</svg>
